#!OML:ASF X:\für Bonn\!DataBase\2005_08_12_Daniel\c3d\Daniel.ASF
:FULLY-SPECIFIED
:DEGREES
544
root 19.112 1.17866 0.625495 -1700.28 260.732 144.925
lowerback 28.0682 -3.29765 0.0309384
upperback 6.25536 -5.05034 -1.99433
thorax -8.65668 -2.69699 -0.450204
lowerneck -15.0654 2.38807 -3.68032
upperneck 5.75246 3.86858 -0.495913
head 4.08644 1.74957 0.729174
rclavicle -7.87187e-014 7.45567e-014
rhumerus -404.248 -8.07131 292.535
rradius 12.8219
rwrist 64.8567
rhand -8.34819 738.965
rfingers 7.12502
rthumb 17.5738 709.74
lclavicle -7.87187e-014 7.45567e-014
lhumerus -590.195 151.681 -489.082
lradius 17.0947
lwrist -54.2568
lhand -3.83591 -725.588
lfingers 7.12502
lthumb 21.9115 23.1907
rfemur -511.5 -167.313 540.915
rtibia 18.8931
rfoot -44.4968 -8.69325
rtoes 37.6083
lfemur 15.364 723.208 -14.1763
ltibia 40.6629
lfoot 141.818 553.252
ltoes 26.9578
545
root 19.109 1.1771 0.625073 -1700.19 260.738 144.816
lowerback 28.0765 -3.2999 0.0151468
upperback 6.28626 -5.05815 -1.97416
thorax -8.62278 -2.70218 -0.416724
lowerneck -15.2079 2.39288 -3.67634
upperneck 5.76103 3.88126 -0.521609
head 4.11205 1.75271 0.723616
rclavicle -8.66701e-014 1.09319e-013
rhumerus -404.197 -8.07093 292.558
rradius 12.8351
rwrist 64.9374
rhand -8.33237 738.983
rfingers 7.12502
rthumb 17.589 709.759
lclavicle -8.66701e-014 1.09319e-013
lhumerus -590.184 151.695 -488.989
lradius 17.1798
lwrist -54.2049
lhand -3.79805 -725.556
lfingers 7.12502
lthumb 21.9479 23.2186
rfemur -511.563 -167.325 540.946
rtibia 19.0077
rfoot -44.3142 -8.64259
rtoes 37.6961
lfemur 15.3422 723.387 -14.0428
ltibia 40.6697
lfoot 142.176 553.295
ltoes 27.1116
546
root 19.1063 1.17662 0.62411 -1700.02 260.736 144.652
lowerback 28.0406 -3.30637 0.00324658
upperback 6.32742 -5.07094 -1.96583
thorax -8.55698 -2.71048 -0.399808
lowerneck -15.3575 2.39376 -3.66163
upperneck 5.77001 3.88664 -0.542912
head 4.1391 1.7528 0.717268
rclavicle -4.85035e-014 5.83806e-014
rhumerus -404.123 -8.13304 292.593
rradius 12.8312
rwrist 65.0712
rhand -8.31398 738.997
rfingers 7.12502
rthumb 17.6067 709.774
lclavicle -4.85035e-014 5.83806e-014
lhumerus -590.157 151.627 -488.978
lradius 17.2132
lwrist -54.2359
lhand -3.7778 -725.557
lfingers 7.12502
lthumb 21.9673 23.2156
rfemur -511.639 -167.323 540.976
rtibia 19.118
rfoot -44.1138 -8.62682
rtoes 37.7453
lfemur 15.3024 723.494 -13.9596
ltibia 40.6703
lfoot 142.473 553.323
ltoes 27.1234
547
root 19.1044 1.17615 0.623215 -1699.9 260.738 144.533
lowerback 28.0118 -3.30783 -0.0118238
upperback 6.36337 -5.07736 -1.9517
thorax -8.49965 -2.71535 -0.376326
lowerneck -15.4955 2.39743 -3.64404
upperneck 5.75703 3.89525 -0.580187
head 4.15786 1.7538 0.705371
rclavicle -7.15625e-015 6.96243e-014
rhumerus -404.035 -8.16146 292.62
rradius 12.8057
rwrist 65.1506
rhand -8.32196 739.023
rfingers 7.12502
rthumb 17.599 709.8
lclavicle -7.15625e-015 6.96243e-014
lhumerus -590.08 151.74 -488.783
lradius 17.2894
lwrist -54.0315
lhand -3.75135 -725.53
lfingers 7.12502
lthumb 21.9927 23.2392
rfemur -511.727 -167.33 541.015
rtibia 19.2289
rfoot -43.9003 -8.65788
rtoes 37.6938
lfemur 15.266 723.566 -13.8931
ltibia 40.6611
lfoot 142.742 553.366
ltoes 27.1578
548
root 19.1015 1.17475 0.622714 -1699.79 260.728 144.417
lowerback 27.9858 -3.31119 -0.0226855
upperback 6.41349 -5.08726 -1.95355
thorax -8.42977 -2.72278 -0.372118
lowerneck -15.6953 2.39776 -3.6128
upperneck 5.80515 3.90033 -0.607503
head 4.20542 1.75279 0.695641
rclavicle -6.67916e-014 -2.80411e-014
rhumerus -403.954 -8.1107 292.55
rradius 12.8203
rwrist 65.0936
rhand -8.29434 739.009
rfingers 7.12502
rthumb 17.6256 709.788
lclavicle -6.67916e-014 -2.80411e-014
lhumerus -590.032 151.668 -488.777
lradius 17.3058
lwrist -54.0357
lhand -3.74773 -725.529
lfingers 7.12502
lthumb 21.9962 23.2401
rfemur -511.803 -167.334 541.032
rtibia 19.3392
rfoot -43.6543 -8.67628
rtoes 37.6688
lfemur 15.2523 723.538 -13.9133
ltibia 40.6407
lfoot 142.886 553.293
ltoes 27.2998
549
root 19.0995 1.17474 0.621191 -1699.63 260.732 144.253
lowerback 27.9635 -3.30948 -0.0369646
upperback 6.44373 -5.08834 -1.93198
thorax -8.38141 -2.72471 -0.342176
lowerneck -15.8558 2.38243 -3.6535
upperneck 5.84182 3.89485 -0.612145
head 4.24153 1.74669 0.702781
rclavicle 1.66979e-014 -7.52897e-015
rhumerus -403.899 -8.11877 292.564
rradius 12.8212
rwrist 65.0775
rhand -8.27659 739.02
rfingers 7.12502
rthumb 17.6427 709.8
lclavicle 1.66979e-014 -7.52897e-015
lhumerus -590 151.692 -488.686
lradius 17.339
lwrist -54.0154
lhand -3.7527 -725.59
lfingers 7.12502
lthumb 21.9914 23.18
rfemur -511.878 -167.312 541.053
rtibia 19.4498
rfoot -43.3644 -8.78658
rtoes 37.4961
lfemur 15.2362 723.409 -13.9874
ltibia 40.6121
lfoot 142.967 553.259
ltoes 27.3825
550
root 19.0971 1.17391 0.620343 -1699.52 260.752 144.143
lowerback 27.9447 -3.31487 -0.0348418
upperback 6.48335 -5.09466 -1.90835
thorax -8.32537 -2.73008 -0.317624
lowerneck -16.0661 2.38163 -3.70179
upperneck 5.90574 3.91302 -0.619549
head 4.29351 1.75078 0.71308
rclavicle 2.38542e-014 -3.1644e-014
rhumerus -403.803 -7.75712 292.293
rradius 12.8666
rwrist 64.623
rhand -8.24478 738.971
rfingers 7.12502
rthumb 17.6733 709.754
lclavicle 2.38542e-014 -3.1644e-014
lhumerus -590.005 151.582 -488.708
lradius 17.3442
lwrist -54.1534
lhand -3.81299 -725.646
lfingers 7.12502
lthumb 21.9335 23.1307
rfemur -511.969 -167.37 541.151
rtibia 19.5566
rfoot -43.1403 -8.79493
rtoes 37.5213
lfemur 15.2289 723.183 -14.1206
ltibia 40.5785
lfoot 142.948 553.168
ltoes 27.555
551
root 19.0945 1.17325 0.618826 -1699.38 260.757 143.988
lowerback 27.9358 -3.31527 -0.0268557
upperback 6.52457 -5.09454 -1.90565
thorax -8.27488 -2.73239 -0.321304
lowerneck -16.2717 2.3621 -3.75289
upperneck 5.97791 3.90374 -0.583833
head 4.34674 1.74444 0.735057
rclavicle 6.04305e-014 -1.08425e-013
rhumerus -403.744 -7.526 292.063
rradius 12.9088
rwrist 64.2415
rhand -8.20651 738.882
rfingers 7.12502
rthumb 17.7101 709.669
lclavicle 6.04305e-014 -1.08425e-013
lhumerus -589.987 151.435 -488.8
lradius 17.2882
lwrist -54.4128
lhand -3.92261 -725.755
lfingers 7.12502
lthumb 21.8283 23.0342
rfemur -512.029 -167.407 541.217
rtibia 19.6399
rfoot -42.8737 -8.84847
rtoes 37.5321
lfemur 15.2251 722.97 -14.2573
ltibia 40.545
lfoot 142.954 553.117
ltoes 27.5687
552
root 19.0931 1.17253 0.61748 -1699.29 260.761 143.904
lowerback 27.9165 -3.31346 -0.02236
upperback 6.54655 -5.09113 -1.90185
thorax -8.24056 -2.73197 -0.322803
lowerneck -16.4335 2.35023 -3.79066
upperneck 6.04475 3.90318 -0.578803
head 4.39222 1.74102 0.745453
rclavicle -8.74653e-015 -3.01407e-014
rhumerus -403.724 -7.15709 291.737
rradius 13.0068
rwrist 63.6992
rhand -8.15294 738.743
rfingers 7.12502
rthumb 17.7617 709.534
lclavicle -8.74653e-015 -3.01407e-014
lhumerus -589.942 151.426 -488.768
lradius 17.2503
lwrist -54.5974
lhand -4.03031 -725.801
lfingers 7.12502
lthumb 21.7249 22.9998
rfemur -512.105 -167.459 541.303
rtibia 19.6975
rfoot -42.5857 -8.91842
rtoes 37.6048
lfemur 15.195 722.738 -14.4242
ltibia 40.5126
lfoot 142.966 553.085
ltoes 27.6956
553
root 19.0932 1.17166 0.616179 -1699.1 260.772 143.7
lowerback 27.9223 -3.32475 -0.00102222
upperback 6.57518 -5.10096 -1.89394
thorax -8.21226 -2.73869 -0.323541
lowerneck -16.5957 2.34037 -3.83078
upperneck 6.09764 3.90597 -0.581065
head 4.43349 1.73878 0.754067
rclavicle -1.59028e-015 1.71452e-014
rhumerus -403.7 -6.67435 291.324
rradius 13.1383
rwrist 63.0221
rhand -8.1084 738.587
rfingers 7.12502
rthumb 17.8045 709.382
lclavicle -1.59028e-015 1.71452e-014
lhumerus -589.958 151.25 -488.87
lradius 17.1773
lwrist -55.005
lhand -4.2064 -725.908
lfingers 7.12502
lthumb 21.5557 22.9124
rfemur -512.148 -167.565 541.442
rtibia 19.7287
rfoot -42.3135 -9.01899
rtoes 37.7306
lfemur 15.1626 722.457 -14.6103
ltibia 40.4877
lfoot 142.987 553.134
ltoes 27.679
